<?xml version="1.0" encoding="utf-8"?>
<!-- Generator: Adobe Illustrator 24.1.3, SVG Export Plug-In . SVG Version: 6.00 Build 0)  -->
<svg version="1.1" id="Capa_1" xmlns="http://www.w3.org/2000/svg" xmlns:xlink="http://www.w3.org/1999/xlink" x="0px" y="0px"
	 viewBox="0 0 348.8 105.8" style="enable-background:new 0 0 348.8 105.8;" xml:space="preserve">
<style type="text/css">
	.st0{fill:#2B2B2B;}
	.st1{fill:#4DC9FF;}
	.st2{fill:#FFFFFF;}
</style>
<g>
	<path class="st0" d="M103.6,23.1h21.2v7.3h-6.9v52.3h-7.3V30.4h-7V23.1z"/>
	<path class="st0" d="M128.4,42.5h6.8v5.1c1.5-3.5,4.4-5.7,8.1-5.7c0.5,0,1,0,1.5,0.1v7.5c-0.7-0.1-1.3-0.2-1.9-0.2
		c-4.4,0-7.2,3.2-7.2,8.8v24.6h-7.3V42.5z"/>
	<path class="st0" d="M150.1,42.5h7.3v29.9c0,3.5,1.4,5.2,4.1,5.2c2.8,0,4.2-1.7,4.2-5.2V42.5h7.3v29.7
		c0,7.4-4.1,11.3-11.5,11.3c-7.3,0-11.4-3.9-11.4-11.3V42.5z"/>
	<path class="st0" d="M179.8,54.5c0-8,4.4-12.6,11.8-12.6c7.4,0,11.8,4.6,11.8,12.6V64h-16.3v9.4c0,3,1.6,4.6,4.6,4.6
		c2.9,0,4.5-1.6,4.5-4.6v-3.8h7.2v3.7c0,6.7-4.2,10.3-11.7,10.3c-7.5,0-11.9-3.7-11.9-10.3V54.5z M196.1,58.7v-4.6
		c0-3.5-1.5-5.1-4.5-5.1c-3,0-4.5,1.6-4.5,5.1v4.6H196.1z"/>
	<path class="st0" d="M211.5,23.1h8.2l12.3,37.1V23.1h6.7v59.6h-7.6l-12.8-38.5v38.5h-6.8V23.1z"/>
	<path class="st0" d="M246.1,54.5c0-8,4.4-12.6,11.8-12.6c7.4,0,11.8,4.6,11.8,12.6V64h-16.3v9.4c0,3,1.6,4.6,4.6,4.6
		c2.9,0,4.5-1.6,4.5-4.6v-3.8h7.2v3.7c0,6.7-4.2,10.3-11.7,10.3c-7.5,0-11.9-3.7-11.9-10.3V54.5z M262.4,58.7v-4.6
		c0-3.5-1.5-5.1-4.5-5.1c-3,0-4.5,1.6-4.5,5.1v4.6H262.4z"/>
	<path class="st0" d="M276.3,70.1h7.1v3.5c0,3.2,1.5,4.8,4.5,4.8c2.9,0,4.5-1.6,4.5-4.8c0-3.4-2.2-5.5-6.7-8.7
		c-5.9-4.1-9.1-7.1-9.1-12.7c0-6.1,4.1-10.3,11.2-10.3c7.3,0,11.4,3.8,11.4,10.6v2.8h-7v-2.9c0-3.1-1.4-4.7-4.3-4.7
		c-2.8,0-4.3,1.6-4.3,4.5c0,3.1,2.1,5.1,6.5,8.1c6,4.2,9.4,7.3,9.4,13.2c0,6.3-4.2,10.6-11.6,10.6
		c-7.4,0-11.6-3.9-11.6-10.7V70.1z"/>
	<path class="st0" d="M307.2,48.9h-5.4v-6.4h5.4V31.9h7.3v10.6h7v6.4h-7v24.4c0,2.5,1.1,3.6,3.5,3.6c1.1,0,2.2-0.1,3.3-0.4v6.3
		c-1.6,0.4-3.2,0.6-4.9,0.6c-6.1,0-9.2-3.2-9.2-9.5V48.9z"/>
</g>
<g>
	<path class="st1" d="M81.6,32.6c-3.3-5.7-8.7-10.1-15.2-12.2c-4.2-1.4-8.8-1.6-13.3-0.8c-0.1,0-0.2,0-0.3,0.1
		c-1.5,0.3-3.1,0.8-4.5,1.4c-6.3,2.6-11.3,7.5-14.2,13.6c-2.9,6.1-3.5,13.1-1.6,19.6c0.2,0.7,0.5,1.4,0.7,2.1L52.7,91l19.4-34.7
		c0.3-0.7,0.5-1.4,0.7-2.1C75,47.1,73.7,39.2,69.7,32.9c2.3,1.1,4.3,2.8,5.7,5c2.4,3.7,3.1,8.2,2,12.4c-0.2,0.7-0.4,1.3-0.7,2
		l-14,25.1l10,17.9l19.4-34.7c0.3-0.7,0.5-1.4,0.7-2.1C95,49.8,91,38.8,81.6,32.6z"/>
	<path class="st2" d="M52.7,21.3c-14.6,0-26.4,11.8-26.4,26.4c0,4.5,1.1,8.8,3.2,12.5l23.2,41.5l23.2-41.5
		c2-3.7,3.2-8,3.2-12.5C79.1,33.1,67.3,21.3,52.7,21.3z M52.7,57.6c-5.5,0-9.9-4.4-9.9-9.9c0-5.5,4.4-9.9,9.9-9.9
		c5.5,0,9.9,4.4,9.9,9.9C62.6,53.2,58.2,57.6,52.7,57.6z"/>
</g>
</svg>
