<?xml version="1.0" encoding="utf-8"?>
<!-- Generator: Adobe Illustrator 24.1.3, SVG Export Plug-In . SVG Version: 6.00 Build 0)  -->
<svg version="1.1" id="Capa_1" xmlns="http://www.w3.org/2000/svg" xmlns:xlink="http://www.w3.org/1999/xlink" x="0px" y="0px"
	 viewBox="0 0 793.7 793.7" style="enable-background:new 0 0 793.7 793.7;" xml:space="preserve">
<style type="text/css">
	.st0{fill:#FFFFFF;stroke:#E30613;stroke-width:5;stroke-miterlimit:10;}
	.st1{fill:url(#SVGID_1_);}
	.st2{fill:url(#SVGID_2_);}
	.st3{fill:url(#SVGID_3_);}
	.st4{fill:url(#SVGID_4_);}
	.st5{fill:url(#SVGID_5_);}
	.st6{fill:url(#SVGID_6_);}
	.st7{fill:url(#SVGID_7_);}
	.st8{fill:url(#SVGID_8_);}
	.st9{fill:url(#SVGID_9_);}
	.st10{fill:url(#SVGID_10_);}
	.st11{fill:url(#SVGID_11_);}
	.st12{fill:url(#SVGID_12_);}
	.st13{fill:url(#SVGID_13_);}
	.st14{fill:url(#SVGID_14_);}
</style>
<g>
	<rect x="14.2" y="382.7" class="st0" width="56.7" height="28.3"/>
	<rect x="722.8" y="382.7" class="st0" width="56.7" height="28.3"/>
	<rect x="382.7" y="14.2" class="st0" width="28.3" height="56.7"/>
	<rect x="382.7" y="722.8" class="st0" width="28.3" height="56.7"/>
	<path class="st0" d="M722.8,99.2v255.1h28.3V99.2c0-31.3-25.4-56.7-56.7-56.7H439.4v28.3h255.1C710.1,70.9,722.8,83.6,722.8,99.2z"/>
	<path class="st0" d="M70.9,99.2c0-15.7,12.7-28.3,28.3-28.3h255.1V42.5H99.2c-31.3,0-56.7,25.4-56.7,56.7v255.1h28.3V99.2z"/>
	<path class="st0" d="M722.8,694.5c0,15.7-12.7,28.3-28.3,28.3H439.4v28.3h255.1c31.3,0,56.7-25.4,56.7-56.7V439.4h-28.3V694.5z"/>
	<path class="st0" d="M70.9,694.5V439.4H42.5v255.1c0,31.3,25.4,56.7,56.7,56.7h255.1v-28.3H99.2C83.6,722.8,70.9,710.1,70.9,694.5z"/>
	<polygon class="st0" points="99.2,694.5 694.5,694.5 99.2,354.3"/>
	<ellipse class="st0" cx="467.7" cy="481.9" rx="42.5" ry="42.5"/>
	<rect x="382.7" y="99.2" class="st0" width="311.8" height="311.8"/>
	<polygon class="st0" points="637.9,510 651.5,445 602.9,489.5 546.4,456.2 572.9,516.9 524.4,561.4 589.4,554.4 616,615.1 629.5,550.2 694.5,543.2"/>
	<polygon class="st0" points="351.5,463.5 348.8,350.1 252.3,404.4"/>
	<path class="st0" d="M222.5,99.2L99.2,170.4v142.4l123.3,71.2l123.3-71.2V170.4L222.5,99.2z M296.2,284.2l-73.7,42.5l-73.7-42.5v-85l73.7-42.5l73.7,42.5V284.2z"/>
</g>
<g>
	<linearGradient id="SVGID_1_" gradientUnits="userSpaceOnUse" x1="-127.0281" y1="227.3026" x2="552.3069" y2="906.6376"><stop offset="0" style="stop-color:#36BEEF"/><stop offset="1" style="stop-color:#69C0B0"/></linearGradient><rect x="14.2" y="382.7" class="st1" width="56.7" height="28.3"/>
	<linearGradient id="SVGID_2_" gradientUnits="userSpaceOnUse" x1="241.81" y1="-112.5207" x2="921.1449" y2="566.8143"><stop offset="0" style="stop-color:#36BEEF"/><stop offset="1" style="stop-color:#69C0B0"/></linearGradient><rect x="722.8" y="382.7" class="st2" width="56.7" height="28.3"/>
	<linearGradient id="SVGID_3_" gradientUnits="userSpaceOnUse" x1="227.9697" y1="-126.361" x2="906.638" y2="552.3073"><stop offset="0" style="stop-color:#36BEEF"/><stop offset="1" style="stop-color:#69C0B0"/></linearGradient><rect x="382.7" y="14.2" class="st3" width="28.3" height="56.7"/>
	<linearGradient id="SVGID_4_" gradientUnits="userSpaceOnUse" x1="-112.5216" y1="241.8091" x2="566.1467" y2="920.4775"><stop offset="0" style="stop-color:#36BEEF"/><stop offset="1" style="stop-color:#69C0B0"/></linearGradient><rect x="382.7" y="722.8" class="st4" width="28.3" height="56.7"/>
	<linearGradient id="SVGID_5_" gradientUnits="userSpaceOnUse" x1="318.8387" y1="-203.1391" x2="997.8401" y2="475.8624"><stop offset="0" style="stop-color:#36BEEF"/><stop offset="1" style="stop-color:#69C0B0"/></linearGradient><path class="st5" d="M722.8,99.2v255.1h28.3V99.2c0-31.3-25.4-56.7-56.7-56.7H439.4v28.3h255.1C710.1,70.9,722.8,83.6,722.8,99.2z"/>
	<linearGradient id="SVGID_6_" gradientUnits="userSpaceOnUse" x1="57.5597" y1="57.5597" x2="735.6389" y2="735.6389"><stop offset="0" style="stop-color:#36BEEF"/><stop offset="1" style="stop-color:#69C0B0"/></linearGradient><path class="st6" d="M70.9,99.2c0-15.7,12.7-28.3,28.3-28.3h255.1V42.5H99.2c-31.3,0-56.7,25.4-56.7,56.7v255.1h28.3V99.2z"/>
	<linearGradient id="SVGID_7_" gradientUnits="userSpaceOnUse" x1="58.4773" y1="58.4772" x2="736.5563" y2="736.5563"><stop offset="0" style="stop-color:#36BEEF"/><stop offset="1" style="stop-color:#69C0B0"/></linearGradient><path class="st7" d="M722.8,694.5c0,15.7-12.7,28.3-28.3,28.3H439.4v28.3h255.1c31.3,0,56.7-25.4,56.7-56.7V439.4h-28.3V694.5z"/>
	<linearGradient id="SVGID_8_" gradientUnits="userSpaceOnUse" x1="-203.7235" y1="318.2542" x2="475.278" y2="997.2557"><stop offset="0" style="stop-color:#36BEEF"/><stop offset="1" style="stop-color:#69C0B0"/></linearGradient><path class="st8" d="M70.9,694.5V439.4H42.5v255.1c0,31.3,25.4,56.7,56.7,56.7h255.1v-28.3H99.2C83.6,722.8,70.9,710.1,70.9,694.5z"/>
	<linearGradient id="SVGID_9_" gradientUnits="userSpaceOnUse" x1="-91.5172" y1="206.1205" x2="587.7571" y2="885.3948"><stop offset="0" style="stop-color:#36BEEF"/><stop offset="1" style="stop-color:#69C0B0"/></linearGradient><polygon class="st9" points="99.2,694.5 694.5,694.5 99.2,354.3"/>
	<linearGradient id="SVGID_10_" gradientUnits="userSpaceOnUse" x1="50.4609" y1="64.6342" x2="729.4617" y2="743.635"><stop offset="0" style="stop-color:#36BEEF"/><stop offset="1" style="stop-color:#69C0B0"/></linearGradient><circle class="st10" cx="467.7" cy="481.9" r="42.5"/>
	<linearGradient id="SVGID_11_" gradientUnits="userSpaceOnUse" x1="199.4985" y1="-83.9659" x2="878.5" y2="595.0356"><stop offset="0" style="stop-color:#36BEEF"/><stop offset="1" style="stop-color:#69C0B0"/></linearGradient><rect x="382.7" y="99.2" class="st11" width="311.8" height="311.8"/>
	<linearGradient id="SVGID_12_" gradientUnits="userSpaceOnUse" x1="99.8249" y1="15.0831" x2="779.0865" y2="694.3447"><stop offset="0" style="stop-color:#36BEEF"/><stop offset="1" style="stop-color:#69C0B0"/></linearGradient><polygon class="st12" points="637.9,510 651.5,445 602.9,489.5 546.4,456.2 572.9,516.9 524.4,561.4 589.4,554.4 616,615.1 629.5,550.2 694.5,543.2"/>
	<linearGradient id="SVGID_13_" gradientUnits="userSpaceOnUse" x1="19.0053" y1="95.6834" x2="698.2604" y2="774.9385"><stop offset="0" style="stop-color:#36BEEF"/><stop offset="1" style="stop-color:#69C0B0"/></linearGradient><polygon class="st13" points="351.5,463.5 348.8,350.1 252.3,404.4"/>
	<linearGradient id="SVGID_14_" gradientUnits="userSpaceOnUse" x1="47.9077" y1="67.0416" x2="727.177" y2="746.3109"><stop offset="0" style="stop-color:#36BEEF"/><stop offset="1" style="stop-color:#69C0B0"/></linearGradient><path class="st14" d="M222.5,99.2L99.2,170.4v142.4l123.3,71.2l123.3-71.2V170.4L222.5,99.2z M296.2,284.2l-73.7,42.5l-73.7-42.5v-85l73.7-42.5l73.7,42.5V284.2z"/>
</g>
</svg>
